<?xml version="1.0" encoding="utf-8"?>

<!--
  This work is licensed under the Creative Commons Attribution-ShareAlike 4.0
  International License. To view a copy of this license, visit
  http://creativecommons.org/licenses/by-sa/4.0/.
  
  Creator: ngdeleito
-->

<svg xmlns="http://www.w3.org/2000/svg" xmlns:svg="http://www.w3.org/2000/svg"
     version="1.1" width="544" height="384" stroke="black" stroke-width="2"
     fill="transparent">
  <defs>
    <g id="arrow">
      <line x1="6" y1="16" x2="26" y2="16" />
      <!-- slope is 1 and -1; arrowhead "length" follows this proportion:
          (26-6) / (14-6) = 2.5 -->
      <line x1="6" y1="16" x2="14" y2="8" stroke-linecap="round" />
      <line x1="6" y1="16" x2="14" y2="24" stroke-linecap="round" />
    </g>
    <g id="arrowWithLimit">
      <use href="#arrow" transform="translate(1, 0)"/>
      <!-- #arrow arrowhead "width" = 24-8 = 16 -->
      <!-- limit length follows this proportion: (25-7) / 16 = 1.125 -->
      <line x1="6" y1="7" x2="6" y2="25" />
    </g>
    <g id="smallArrow">
      <!-- same characteristics as #arrow, as 12 / 4.8 = 2.5 -->
      <line x1="6" y1="0" x2="6" y2="12" />
      <line x1="6" y1="0" x2="10.8" y2="4.8" stroke-linecap="round" />
      <line x1="6" y1="0" x2="1.2" y2="4.8" stroke-linecap="round" />
    </g>
    <g id="smallArrowWithLimit">
      <use href="#smallArrow" transform="translate(0 1)" />
      <!-- same characteristics as #arrowWithLimit, as (11.4-0.6) / (10.8-1.2) =
           1.125 -->
      <line x1="0.6" y1="0" x2="11.4" y2="0" />
    </g>
    <g id="pageWithoutLeftBorder">
      <polyline points="0 0, 8 0, 14 6, 14 20, 0 20" />
      <polyline points="8 0, 8 6, 14 6" />
    </g>
    <g id="saveArrow">
      <use href="#smallArrow" transform="translate(10 14) rotate(180 6 6)" />
    </g>
    <g id="magnifyingGlass">
      <circle cx="13" cy="13" r="7" />
      <line x1="17.95" y1="17.95" x2="26" y2="26" />
    </g>
    <g id="highlighter">
      <path d="M 11 6 v 12 Q 16 19 21 18 v -12" stroke-linejoin="round" />
      <path d="M 11 14 Q 16 15 21 14" />
      <path d="M 13 19 v 3 l 1 4 h 4 l 1 -4 v -3 Z" fill="black"
            stroke-linejoin="round" />
    </g>
    <g id="slash">
      <line x1="0" y1="11" x2="3" y2="0" stroke-width="1.5" />
    </g>
    <g id="url">
      <circle cx="6" cy="9.5" r="0.5" fill="black" stroke-width="1" />
      <circle cx="6" cy="13.5" r="0.5" fill="black" stroke-width="1" />
      <use href="#slash" x="8" y="6" />
      <use href="#slash" x="11" y="6" />
      <use href="#slash" x="17" y="6" />
      <use href="#slash" x="23" y="6" />
    </g>
    <g id="star">
      <polygon points="16.00 5.14, 12.47 12.29, 4.59 13.43, 10.29 18.99,
                       8.95 26.85, 16.00 23.14, 23.05 26.85, 21.71 18.99,
                       27.41 13.43, 19.53 12.29" stroke-linejoin="round"
               stroke-width="1.5" />
    </g>
  </defs>
  
  
  <!-- showExtraMenu -->
  <g>
    <line x1="6" y1="10" x2="26" y2="10" />
    <line x1="6" y1="14" x2="26" y2="14" />
    <line x1="6" y1="18" x2="26" y2="18" />
    <line x1="6" y1="22" x2="26" y2="22" />
  </g>
  <!-- showExtraMenu showing -->
  <g transform="translate(32, 0)">
    <path d="M 7 19 A 9 9 0 1 1 25 19" />
    <line x1="6" y1="22" x2="26" y2="22" />
  </g>
  <!-- back -->
  <use href="#arrow" x="0" y="32" />
  <!-- backSite -->
  <!-- firstPage -->
  <use href="#arrowWithLimit" x="64" y="32" />
  <!-- forward -->
  <use href="#arrow" x="96" y="32" transform="rotate(180 112 48)" />
  <!-- forwardSite -->
  <!-- lastPage -->
  <use href="#arrowWithLimit" x="160" y="32" transform="rotate(180 176 48)" />
  <!-- reload -->
  <g transform="translate(192, 32)">
    <path d="M 21 8.52 A 9 9 0 1 1 11 8.52" />
    <line x1="5" y1="8.52" x2="11" y2="8.52" stroke-linecap="round" />
    <line x1="11" y1="14.52" x2="11" y2="8.52" stroke-linecap="round" />
  </g>
  <!-- homepage -->
  <g transform="translate(224, 32)">
    <polyline points="6 16, 16 6, 26 16" stroke-linecap="round"
              stroke-linejoin="round" />
    <polyline points="9 14, 9 26, 23 26, 23 14" stroke-linecap="round"
              stroke-linejoin="round" />
    <polyline points="14 26, 14 18, 18 18, 18 26" stroke-linejoin="round" />
  </g>
  <!-- pageTop -->
  <g transform="translate(256, 32)">
    <use href="#smallArrowWithLimit" transform="translate(5.4 10)" />
    <use href="#pageWithoutLeftBorder" x="12" y="6" />
  </g>
  <!-- pageBottom -->
  <g transform="translate(288, 32)">
    <use href="#smallArrowWithLimit"
         transform="translate(5.4 9) rotate(180 6 6.5)" />
    <use href="#pageWithoutLeftBorder" x="12" y="6" />
  </g>
  <!-- savePageAs -->
  <g transform="translate(320, 32)">
    <polyline points="6 20, 6 6, 20 6, 26 12, 26 20" />
    <polyline points="20 6, 20 12, 26 12" />
    <use href="#saveArrow" />
  </g>
  <!-- printPage -->
  <g transform="translate(352, 32)">
    <polyline points="10 16, 10 6, 22 6, 22 16" />
    <line x1="12" y1="9" x2="20" y2="9" />
    <line x1="12" y1="12" x2="20" y2="12" />
    <polyline points="6 19, 6 15, 10 15" />
    <path d="M 6 19 h 4 v -4 h 16 v 7 h -4 v -2 h -12 v 2 h -4 v -3"
          fill="black" />
    <polyline points="10 22, 10 26, 22 26, 22 22" />
  </g>
  <!-- showPrintPreview -->
  <g transform="translate(384, 32)">
    <polyline points="10 9.1, 10 6, 20 6, 26 12, 26 26, 10 26, 10 18.9" />
    <polyline points="20 6, 20 12, 26 12" />
    <circle cx="11" cy="14" r="5" />
    <line x1="14.54" y1="17.54" x2="20.28" y2="23.28" />
  </g>
  <!-- searchWeb -->
  <!-- loadPageInNewTab -->
  <!-- loadPageInNewPrivateWindow -->
  <!-- moveTabToNewWindow -->
  <!-- copyPageURL -->
  <!-- copyURLToIdentifier -->
  <!-- zoomIn -->
  <g transform="translate(160, 64)">
    <use href="#magnifyingGlass" />
    <line x1="13" y1="9" x2="13" y2="17" />
    <line x1="9" y1="13" x2="17" y2="13" />
  </g>
  <!-- zoomOut -->
  <g transform="translate(192, 64)">
    <use href="#magnifyingGlass" />
    <line x1="9" y1="13" x2="17" y2="13" />
  </g>
  <!-- zoomReset -->
  <g transform="translate(224, 64)">
    <use href="#magnifyingGlass" />
    <text x="13" y="16" text-anchor="middle" font-family="sans-serif"
          font-size="9" stroke-width="1">1</text>
  </g>
  <!-- findAndHighlightSelection -->
  <use href="#highlighter" x="256" y="64" />
  <!-- removeHighlight -->
  <g transform="translate(288, 64)">
    <use href="#highlighter" transform="translate(-5, 0)" />
    <g transform="translate(20, 20)">
      <line x1="0" y1="0" x2="6" y2="6" />
      <line x1="0" y1="6" x2="6" y2="0" />
    </g>
  </g>
  <!-- enterReaderMode -->
  <g transform="translate(320, 64)">
    <line x1="6" y1="9" x2="6" y2="26" stroke-linecap="round" />
    <line x1="16" y1="9" x2="16" y2="26" stroke-linecap="round" />
    <line x1="26" y1="9" x2="26" y2="26" stroke-linecap="round" />
    <path d="M 6 9 Q 11 6 16 9 Q 21 6 26 9" />
    <path d="M 6 26 Q 11 23 16 26 Q 21 23 26 26" />
    <line x1="8" y1="12" x2="14" y2="12" />
    <line x1="18" y1="12" x2="24" y2="12" />
    <line x1="8" y1="16" x2="14" y2="16" />
    <line x1="18" y1="16" x2="24" y2="16" />
    <line x1="8" y1="20" x2="14" y2="20" />
    <line x1="18" y1="20" x2="24" y2="20" />
  </g>
  <!-- takeTabScreenshot -->
  <g transform="translate(352, 64)">
    <path d="M 6 10 h 6 l 2 -3 h 4 l 2 3 h 6 v 14 h -20 v -7 M 10 17
             A 6 6 0 1 0 22 17 A 6 6 0 1 0 10 17 M 13.5 17
             A 2.5 2.5 0 1 0 18.5 17 A 2.5 2.5 0 1 0 13.5 17 M 6 17 v -7 Z"
          fill="black" stroke-linejoin="round" />
    <line x1="8" y1="7.5" x2="10" y2="7.5" stroke-linecap="round" />
  </g>
  <!-- toggleFullscreen -->
  <g transform="translate(384, 64)">
    <use href="#smallArrow" transform="translate(15.2, 4.8) rotate(45 6 6)" />
    <use href="#smallArrow" transform="translate(4.8, 15.2) rotate(225 6 6)" />
  </g>
  <!-- up -->
  <g transform="translate(416, 64)">
    <use href="#url" />
    <path d="M 26 20 v 6 h -6 v -6" stroke-linejoin="round"
          stroke-width="1.5" />
    <path d="M 18 22 L 20 20 L 22 22" stroke-linecap="round"
          stroke-width="1.5"  />
  </g>
  <!-- root -->
  <g transform="translate(448, 64)">
    <use href="#url" />
    <path d="M 26 20 v 6 h -12 v -6" stroke-linejoin="round"
          stroke-width="1.5" />
    <path d="M 12 22 L 14 20 L 16 22" stroke-linecap="round"
          stroke-width="1.5" />
  </g>
  <!-- showOnlyThisFrame -->
  <g transform="translate(480, 64)">
    <polygon points="6 6, 26 6, 26 26, 6 26" />
    <line x1="12" y1="6" x2="12" y2="26" stroke-width="1" />
    <line x1="12" y1="14" x2="26" y2="14" stroke-width="1" />
    <use href="#smallArrow" transform="translate(8, 8) rotate(-45 6 6)" />
  </g>
  <!-- viewPageSource -->
  <g transform="translate(512, 64)">
    <use href="#pageWithoutLeftBorder" x="12" y="6" />
    <polyline points="11 18, 6 20, 11 22" stroke-linejoin="bevel"
              stroke-width="1.5" />
    <line x1="15" y1="23" x2="16.91" y2="16" stroke-width="1.5" />
    <polyline points="18 18, 23 20, 18 22" stroke-linejoin="bevel"
              stroke-width="1.5" />
  </g>
  <!-- loadURL1 -->
  <g transform="translate(0, 224)">
    <use href="#star" />
    <text x="16" y="20.5" text-anchor="middle" font-family="sans-serif"
          font-size="10" stroke-width="1">1</text>
  </g>
  <!-- loadURL2 -->
  <g transform="translate(32, 224)">
    <use href="#star" />
    <text x="16" y="20.5" text-anchor="middle" font-family="sans-serif"
          font-size="10" stroke-width="1">2</text>
  </g>
  <!-- loadURL3 -->
  <g transform="translate(64, 224)">
    <use href="#star" />
    <text x="16" y="20.5" text-anchor="middle" font-family="sans-serif"
          font-size="10" stroke-width="1">3</text>
  </g>
  <!-- loadURL4 -->
  <g transform="translate(96, 224)">
    <use href="#star" />
    <text x="16" y="20.5" text-anchor="middle" font-family="sans-serif"
          font-size="10" stroke-width="1">4</text>
  </g>
  <!-- loadURL5 -->
  <g transform="translate(128, 224)">
    <use href="#star" />
    <text x="16" y="20.5" text-anchor="middle" font-family="sans-serif"
          font-size="10" stroke-width="1">5</text>
  </g>
  <!-- loadURL6 -->
  <g transform="translate(160, 224)">
    <use href="#star" />
    <text x="16" y="20.5" text-anchor="middle" font-family="sans-serif"
          font-size="10" stroke-width="1">6</text>
  </g>
  <!-- loadURL7 -->
  <g transform="translate(192, 224)">
    <use href="#star" />
    <text x="16" y="20.5" text-anchor="middle" font-family="sans-serif"
          font-size="10" stroke-width="1">7</text>
  </g>
  <!-- loadURL8 -->
  <g transform="translate(224, 224)">
    <use href="#star" />
    <text x="16" y="20.5" text-anchor="middle" font-family="sans-serif"
          font-size="10" stroke-width="1">8</text>
  </g>
  <!-- loadURL9 -->
  <g transform="translate(256, 224)">
    <use href="#star" />
    <text x="16" y="20.5" text-anchor="middle" font-family="sans-serif"
          font-size="10" stroke-width="1">9</text>
  </g>
  <!-- loadURL10 -->
  <g transform="translate(288, 224)">
    <use href="#star" />
    <text x="15.5" y="20.5" text-anchor="middle" font-family="sans-serif"
          font-size="10" stroke-width="1">10</text>
  </g>
</svg>
