<?xml version="1.0" encoding="utf-8"?>

<!--
  This work is licensed under the Creative Commons Attribution-ShareAlike 4.0
  International License. To view a copy of this license, visit
  http://creativecommons.org/licenses/by-sa/4.0/.
  
  Creator: ngdeleito
-->

<svg xmlns="http://www.w3.org/2000/svg" xmlns:svg="http://www.w3.org/2000/svg"
     version="1.1" width="544" height="384" stroke="black" stroke-width="2"
     fill="transparent">
  <defs>
    <g id="arrow">
      <line x1="0" y1="0" x2="20" y2="0" />
      <!-- slope is 1 and -1; arrowhead "length" follows this proportion:
           20 / 8 = 2.5 -->
      <line x1="0" y1="0" x2="8" y2="-8" stroke-linecap="round" />
      <line x1="0" y1="0" x2="8" y2="8" stroke-linecap="round" />
    </g>
    <g id="arrowWithLimit">
      <use href="#arrow" transform="translate(1, 0)"/>
      <!-- #arrow arrowhead "width" = 16 -->
      <!-- limit length follows this proportion: 9*2 / 16 = 1.125 -->
      <line x1="0" y1="-9" x2="0" y2="9" />
    </g>
    <g id="smallArrow">
      <!-- same characteristics as #arrow, as 12 / 4.8 = 2.5 -->
      <line x1="0" y1="0" x2="0" y2="12" />
      <line x1="0" y1="0" x2="4.8" y2="4.8" stroke-linecap="round" />
      <line x1="0" y1="0" x2="-4.8" y2="4.8" stroke-linecap="round" />
    </g>
    <g id="smallArrowWithLimit">
      <use href="#smallArrow" transform="translate(0, 1)" />
      <!-- same characteristics as #arrowWithLimit, as 5.4*2 / 4.8*2 = 1.125 -->
      <line x1="-5.4" y1="0" x2="5.4" y2="0" />
    </g>
    <g id="pageWithoutLeftBorder">
      <polyline points="0 0, 8 0, 14 6, 14 20, 0 20" />
      <polyline points="8 0, 8 6, 14 6" />
    </g>
    <g id="saveArrow">
      <use href="#smallArrow" transform="translate(16, 26) rotate(180)" />
    </g>
    <g id="tab">
      <path d="M 0 10 h 3 a 2 2 0 0 0 2 -2 v -6 a 2 2 0 0 1 2 -2 h 8
                          a 2 2 0 0 1 2 2 v 6 a 2 2 0 0 0 2 2 h 3" />
    </g>
    <g id="tinyTopPage">
      <polyline points="12 26, 12 18, 17 18, 20 21, 20 26" />
      <polyline points="17 18, 17 21, 20 21" />
    </g>
    <g id="mask">
      <path d="M 7 11 a 4 2.5 0 1 0 8 0 a 4 2.5 0 1 0 -8 0
               M 17 11 a 4 2.5 0 1 0 8 0 a 4 2.5 0 1 0 -8 0
               M 6 8
               Q 12 6 14 8 Q 16 9 18 8 Q 20 6 26 8
               Q 25 20 18 14 Q 16 12 14 14 Q 7 20 6 8 Z" fill="black" />
    </g>
    <g id="slash">
      <line x1="0" y1="11" x2="3" y2="0" />
    </g>
    <g id="url">
      <circle cx="1" cy="3.5" r="0.5" fill="black" stroke-width="1.5" />
      <circle cx="1" cy="7.5" r="0.5" fill="black" stroke-width="1.5" />
      <use href="#slash" x="3.5" y="0" />
      <use href="#slash" x="7.5" y="0" />
    </g>
    <g id="hashSign">
      <!-- same slope as #slash -->
      <line x1="2.87" y1="12" x2="6.14" y2="0" />
      <line x1="6.87" y1="12" x2="10.14" y2="0" />
      <line x1="1" y1="4" x2="13" y2="4" />
      <line x1="0" y1="8" x2="12" y2="8" />
    </g>
    <g id="magnifyingGlass">
      <circle cx="13" cy="13" r="7" />
      <line x1="17.95" y1="17.95" x2="26" y2="26" />
    </g>
    <g id="plusSign">
      <line x1="4" y1="0" x2="4" y2="8" />
      <line x1="0" y1="4" x2="8" y2="4" />
    </g>
    <g id="minusSign">
      <line x1="0" y1="0" x2="8" y2="0" />
    </g>
    <g id="highlighter">
      <path d="M 11 6 v 12 Q 16 19 21 18 v -12" stroke-linejoin="round" />
      <path d="M 11 14 Q 16 15 21 14" />
      <path d="M 13 19 v 3 l 1 4 h 4 l 1 -4 v -3 Z" fill="black"
            stroke-linejoin="round" />
    </g>
    <g id="crossSign">
      <line x1="0" y1="0" x2="6" y2="6" />
      <line x1="0" y1="6" x2="6" y2="0" />
    </g>
    <g id="thinnerSlash">
      <line x1="0" y1="11" x2="3" y2="0" stroke-width="1.5" />
    </g>
    <g id="urlWithPath">
      <circle cx="6" cy="9.5" r="0.5" fill="black" stroke-width="1" />
      <circle cx="6" cy="13.5" r="0.5" fill="black" stroke-width="1" />
      <use href="#thinnerSlash" x="8" y="6" />
      <use href="#thinnerSlash" x="11" y="6" />
      <use href="#thinnerSlash" x="17" y="6" />
      <use href="#thinnerSlash" x="23" y="6" />
    </g>
    <g id="emptySign">
      <circle cx="4" cy="4" r="3" stroke-width="1.5" />
      <line x1="0.5" y1="7.5" x2="7.5" y2="0.5" stroke-width="1.5" />
    </g>
    <g id="undoCloseSign">
      <path d="M 26 15.58 A 8 8 0 0 0 15.58 26" />
      <g transform="translate(15.58, 26) rotate(-145)">
        <line x1="0" y1="0" x2="4" y2="0" stroke-linecap="round" />
        <line x1="0" y1="0" x2="0" y2="4" stroke-linecap="round" />
      </g>
      <use href="#crossSign" x="20" y="20" />
    </g>
    <g id="windowTopArea">
      <path d="M 0 6 v -4 a 2 2 0 0 1 2 -2 h 10 a 2 2 0 0 1 2 2 v 4
               M 0 2 h 14" />
    </g>
    <g id="window">
      <use href="#windowTopArea" />
      <path d="M 0 6 v 4 a 2 2 0 0 0 2 2 h 10 a 2 2 0 0 0 2 -2 v -4" />
    </g>
    <g id="link">
      <path d="M 8 4 A 2 2 0 0 1 6 6 h -4 A 2 2 0 0 1 0 4 v -2
                     A 2 2 0 0 1 2 0 h 4 A 2 2 0 0 1 8 2" />
    </g>
    <g id="linkSign">
      <use href="#link" />
      <line x1="6" y1="3" x2="14" y2="3" stroke-linecap="round" />
      <use href="#link" x="-12" transform="rotate(180 4 3)" />
    </g>
    <g id="smallStar">
      <polygon points="13.61 6.00, 11.26 10.76, 6.00 11.53, 9.81 15.24,
                       8.91 20.47, 13.61 18.00, 18.31 20.47, 17.41 15.24,
                       21.22 11.53, 15.96 10.76" stroke-linejoin="round"
               stroke-width="1.5" />
    </g>
    <g id="smallHashSign">
      <!-- same slope as #slash -->
      <line x1="2.27" y1="9" x2="4.73" y2="0" stroke-width="1.5" />
      <line x1="5.27" y1="9" x2="7.73" y2="0" stroke-width="1.5" />
      <line x1="1" y1="3" x2="10" y2="3" stroke-width="1.5" />
      <line x1="0" y1="6" x2="9" y2="6" stroke-width="1.5" />
    </g>
    <g id="tinyStar">
      <polygon points="11.71 15.15, 9.95 18.72, 6.00 19.30, 8.86 22.08,
                       8.18 26.00, 11.71 24.15, 15.24 26.00, 14.56 22.08,
                       17.42 19.30, 13.47 18.72" stroke-linejoin="round"
               stroke-width="1.5" />
    </g>
    <g id="star">
      <polygon points="16.00 5.14, 12.47 12.29, 4.59 13.43, 10.29 18.99,
                       8.95 26.85, 16.00 23.14, 23.05 26.85, 21.71 18.99,
                       27.41 13.43, 19.53 12.29" stroke-linejoin="round"
               stroke-width="1.5" />
    </g>
    <g id="script">
      <path d="M 22 10 h 4 a 2 4 0 0 0 -4 0 v 12 a 2 4 0 0 1 -4 0 h -12
                                                 a 2 4 0 0 0 2 4 h 12"
            stroke-width="1.5" stroke-linejoin="round" />
      <path d="M 10 22 v -12 a 2 4 0 0 1 2 -4 h 12" stroke-width="1.5" />
    </g>
    <g id="pictureWithTopFrame">
      <polyline points="6 15, 6 6, 26 6, 26 16" />
      <polyline points="6 14, 12 10, 26 15" />
      <polyline points="17 11.83, 20 9, 26 11" />
    </g>
    <g id="tinyArrow">
      <!-- same characteristics as #arrow, as 7 / 2.8 = 2.5 -->
      <line x1="0" y1="0" x2="7" y2="0" />
      <line x1="0" y1="0" x2="2.8" y2="-2.8" stroke-linecap="round" />
      <line x1="0" y1="0" x2="2.8" y2="2.8" stroke-linecap="round" />
    </g>
  </defs>
  
  
  <!-- showExtraMenu -->
  <g>
    <line x1="6" y1="10" x2="26" y2="10" />
    <line x1="6" y1="14" x2="26" y2="14" />
    <line x1="6" y1="18" x2="26" y2="18" />
    <line x1="6" y1="22" x2="26" y2="22" />
  </g>
  <!-- showExtraMenu showing -->
  <g transform="translate(32, 0)">
    <path d="M 7 19 A 9 9 0 1 1 25 19" />
    <line x1="6" y1="22" x2="26" y2="22" />
  </g>
  <!-- back -->
  <g transform="translate(0, 32)">
    <use href="#arrow" x="6" y="16" />
  </g>
  <!-- backSite -->
  <!-- firstPage -->
  <g transform="translate(64, 32)">
    <use href="#arrowWithLimit" x="6" y="16" />
  </g>
  <!-- forward -->
  <g transform="translate(96, 32)">
    <use href="#arrow" transform="translate(26, 16) rotate(180)" />
  </g>
  <!-- forwardSite -->
  <!-- lastPage -->
  <g transform="translate(160, 32)">
    <use href="#arrowWithLimit" transform="translate(26, 16) rotate(180)" />
  </g>
  <!-- reload -->
  <g transform="translate(192, 32)">
    <path d="M 21 8.52 A 9 9 0 1 1 11 8.52" />
    <line x1="5" y1="8.52" x2="11" y2="8.52" stroke-linecap="round" />
    <line x1="11" y1="14.52" x2="11" y2="8.52" stroke-linecap="round" />
  </g>
  <!-- homepage -->
  <g transform="translate(224, 32)">
    <polyline points="6 16, 16 6, 26 16" stroke-linecap="round"
              stroke-linejoin="round" />
    <polyline points="9 14, 9 26, 23 26, 23 14" stroke-linecap="round"
              stroke-linejoin="round" />
    <polyline points="14 26, 14 18, 18 18, 18 26" stroke-linejoin="round" />
  </g>
  <!-- pageTop -->
  <g transform="translate(256, 32)">
    <use href="#smallArrowWithLimit" transform="translate(11.4, 10)" />
    <use href="#pageWithoutLeftBorder" x="12" y="6" />
  </g>
  <!-- pageBottom -->
  <g transform="translate(288, 32)">
    <use href="#smallArrowWithLimit"
         transform="translate(11.4, 22) rotate(180)" />
    <use href="#pageWithoutLeftBorder" x="12" y="6" />
  </g>
  <!-- savePageAs -->
  <g transform="translate(320, 32)">
    <polyline points="6 20, 6 6, 20 6, 26 12, 26 20" />
    <polyline points="20 6, 20 12, 26 12" />
    <use href="#saveArrow" />
  </g>
  <!-- printPage -->
  <g transform="translate(352, 32)">
    <polyline points="10 16, 10 6, 22 6, 22 16" />
    <line x1="12" y1="9" x2="20" y2="9" />
    <line x1="12" y1="12" x2="20" y2="12" />
    <polyline points="6 19, 6 15, 10 15" />
    <path d="M 6 19 h 4 v -4 h 16 v 7 h -4 v -2 h -12 v 2 h -4 v -3"
          fill="black" />
    <polyline points="10 22, 10 26, 22 26, 22 22" />
  </g>
  <!-- showPrintPreview -->
  <g transform="translate(384, 32)">
    <polyline points="10 9.1, 10 6, 20 6, 26 12, 26 26, 10 26, 10 18.9" />
    <polyline points="20 6, 20 12, 26 12" />
    <circle cx="11" cy="14" r="5" />
    <line x1="14.54" y1="17.54" x2="20.28" y2="23.28" />
  </g>
  <!-- searchWeb -->
  <!-- loadPageInNewTab -->
  <g transform="translate(0, 64)">
    <use href="#tab" x="5" y="6" />
    <use href="#tinyTopPage" x="1" />
  </g>
  <!-- loadPageInNewPrivateWindow -->
  <g transform="translate(32, 64)">
    <use href="#mask" />
    <use href="#tinyTopPage" x="1" />
  </g>
  <!-- moveTabToNewWindow -->
  <g transform="translate(64, 64)">
    <path d="M 13 16 v -8 a 2 2 0 0 1 2 -2 h 10 a 2 2 0 0 1 2 2 v 8" />
    <line x1="13" y1="8" x2="27" y2="8" />
    <g transform="translate(15, 13)">
      <!-- same characteristics as #arrow, as 8 / 3.2 = 2.5 -->
      <line x1="6" y1="0" x2="6" y2="8" />
      <line x1="6" y1="0" x2="9.2" y2="3.2" stroke-linecap="round" />
      <line x1="6" y1="0" x2="2.8" y2="3.2" stroke-linecap="round" />
    </g>
    <path d="M 5 26 h 1.5 a 2 2 0 0 0 2 -2 v -3 a 2 2 0 0 1 2 -2 h 4
                          a 2 2 0 0 1 2 2 v 3 a 2 2 0 0 0 2 2 h 1.5" />
  </g>
  <!-- copyPageURL -->
  <g transform="translate(96, 64)">
    <use href="#url" x="6" y="5" />
    <use href="#url" x="15.5" y="16" />
  </g>
  <!-- copyURLToIdentifier -->
  <g transform="translate(128, 64)">
    <use href="#hashSign" x="5" y="6" />
    <use href="#hashSign" x="14" y="14" />
  </g>
  <!-- zoomIn -->
  <g transform="translate(160, 64)">
    <use href="#magnifyingGlass" />
    <use href="#plusSign" x="9" y="9" />
  </g>
  <!-- zoomOut -->
  <g transform="translate(192, 64)">
    <use href="#magnifyingGlass" />
    <use href="#minusSign" x="9" y="13" />
  </g>
  <!-- zoomReset -->
  <g transform="translate(224, 64)">
    <use href="#magnifyingGlass" />
    <text x="13" y="16" text-anchor="middle" font-family="sans-serif"
          font-size="9" stroke-width="1">1</text>
  </g>
  <!-- findAndHighlightSelection -->
  <use href="#highlighter" x="256" y="64" />
  <!-- removeHighlight -->
  <g transform="translate(288, 64)">
    <use href="#highlighter" transform="translate(-5, 0)" />
    <use href="#crossSign" x="20" y="20" />
  </g>
  <!-- enterReaderMode -->
  <g transform="translate(320, 64)">
    <line x1="6" y1="9" x2="6" y2="26" stroke-linecap="round" />
    <line x1="16" y1="9" x2="16" y2="26" stroke-linecap="round" />
    <line x1="26" y1="9" x2="26" y2="26" stroke-linecap="round" />
    <path d="M 6 9 Q 11 6 16 9 Q 21 6 26 9" />
    <path d="M 6 26 Q 11 23 16 26 Q 21 23 26 26" />
    <line x1="8" y1="12" x2="14" y2="12" />
    <line x1="18" y1="12" x2="24" y2="12" />
    <line x1="8" y1="16" x2="14" y2="16" />
    <line x1="18" y1="16" x2="24" y2="16" />
    <line x1="8" y1="20" x2="14" y2="20" />
    <line x1="18" y1="20" x2="24" y2="20" />
  </g>
  <!-- takeTabScreenshot -->
  <g transform="translate(352, 64)">
    <path d="M 6 10 h 6 l 2 -3 h 4 l 2 3 h 6 v 14 h -20 v -7 M 10 17
             A 6 6 0 1 0 22 17 A 6 6 0 1 0 10 17 M 13.5 17
             A 2.5 2.5 0 1 0 18.5 17 A 2.5 2.5 0 1 0 13.5 17 M 6 17 v -7 Z"
          fill="black" stroke-linejoin="round" />
    <line x1="8" y1="7.5" x2="10" y2="7.5" stroke-linecap="round" />
  </g>
  <!-- toggleFullscreen -->
  <g transform="translate(384, 64)">
    <use href="#smallArrow" transform="translate(26, 6) rotate(45)" />
    <use href="#smallArrow" transform="translate(6, 26) rotate(-135)" />
  </g>
  <!-- up -->
  <g transform="translate(416, 64)">
    <use href="#urlWithPath" />
    <path d="M 26 20 v 6 h -6 v -6" stroke-linejoin="round"
          stroke-width="1.5" />
    <path d="M 18 22 L 20 20 L 22 22" stroke-linecap="round"
          stroke-width="1.5"  />
  </g>
  <!-- root -->
  <g transform="translate(448, 64)">
    <use href="#urlWithPath" />
    <path d="M 26 20 v 6 h -12 v -6" stroke-linejoin="round"
          stroke-width="1.5" />
    <path d="M 12 22 L 14 20 L 16 22" stroke-linecap="round"
          stroke-width="1.5" />
  </g>
  <!-- showOnlyThisFrame -->
  <g transform="translate(480, 64)">
    <polygon points="6 6, 26 6, 26 26, 6 26" />
    <line x1="12" y1="6" x2="12" y2="26" stroke-width="1" />
    <line x1="12" y1="14" x2="26" y2="14" stroke-width="1" />
    <use href="#smallArrow" transform="translate(10, 10) rotate(-45)" />
  </g>
  <!-- viewPageSource -->
  <g transform="translate(512, 64)">
    <use href="#pageWithoutLeftBorder" x="12" y="6" />
    <polyline points="11 18, 6 20, 11 22" stroke-linejoin="bevel"
              stroke-width="1.5" />
    <line x1="15" y1="23" x2="16.91" y2="16" stroke-width="1.5" />
    <polyline points="18 18, 23 20, 18 22" stroke-linejoin="bevel"
              stroke-width="1.5" />
  </g>
  <!-- newTab -->
  <g transform="translate(0, 96)">
    <use href="#tab" x="5" y="6" />
    <use href="#plusSign" x="19" y="19" />
  </g>
  <!-- newBlankTab -->
  <g transform="translate(32, 96)">
    <use href="#tab" x="5" y="6" />
    <use href="#emptySign" x="12" y="8" />
    <use href="#plusSign" x="19" y="19" />
  </g>
  <!-- duplicateTab -->
  <g transform="translate(64, 96)">
    <path d="M 5 17 h 1 a 2 2 0 0 0 2 -2 v -6 a 2 2 0 0 1 2 -2 h 8
                        a 2 2 0 0 1 2 2 v 6" />
    <path d="M 9 25 h 1 a 2 2 0 0 0 2 -2 v -6 a 2 2 0 0 1 2 -2 h 8
                        a 2 2 0 0 1 2 2 v 6 a 2 2 0 0 0 2 2 h 1" />
  </g>
  <!-- closeTab -->
  <g transform="translate(96, 96)">
    <use href="#tab" x="5" y="6" />
    <use href="#crossSign" x="20" y="20" />
  </g>
  <!-- closeOtherTabs -->
  <g transform="translate(128, 96)">
    <path d="M 5 21 h 1 a 2 2 0 0 0 2 -2 v -6 a 2 2 0 0 1 2 -2 h 5
                        a 2 2 0 0 1 2 2 v 6 a 2 2 0 0 0 2 2 h 1" />
    <path d="M 17 15 a 2 2 0 0 1 2 -2 h 5.5 a 2 2 0 0 1 2 2 v 1" />
    <use href="#crossSign" x="21" y="18" />
  </g>
  <!-- undoCloseTab -->
  <g transform="translate(160, 96)">
    <path d="M 5 16 h 3 a 2 2 0 0 0 2 -2 v -6 a 2 2 0 0 1 2 -2 h 8
                        a 2 2 0 0 1 2 2 v 4" />
    <use href="#undoCloseSign" />
  </g>
  <!-- previousTab -->
  <g transform="translate(192, 96)">
    <use href="#tab" x="5" y="6" />
    <use href="#smallArrow" transform="translate(10, 21.2) rotate(-90)" />
  </g>
  <!-- nextTab -->
  <g transform="translate(224, 96)">
    <use href="#tab" x="5" y="6" />
    <use href="#smallArrow" transform="translate(22, 21.2) rotate(90)" />
  </g>
  <!-- pinUnpinTab -->
  <g transform="translate(256, 96)">
    <g transform="translate(13, 6) rotate(45 3 10)">
      <path d="M 0 1 q 3 -1 6 0 v 8
               a 2 2 0 0 0 2 2 q -5 1 -10 0 a 2 2 0 0 0 2 -2 Z" fill="black" />
      <path d="M 3 11 v 11" stroke-width="1.5" />
    </g>
  </g>
  <!-- newWindow -->
  <g transform="translate(0, 128)">
    <use href="#window" x="6" y="6" />
    <use href="#plusSign" x="19" y="19" />
  </g>
  <!-- newBlankWindow -->
  <g transform="translate(32, 128)">
    <use href="#window" x="6" y="6" />
    <use href="#emptySign" x="9" y="9" />
    <use href="#plusSign" x="19" y="19" />
  </g>
  <!-- newPrivateWindow -->
  <g transform="translate(64, 128)">
    <use href="#mask" />
    <line x1="6" y1="8" x2="6" y2="24" stroke-linecap="round" />
  </g>
  <!-- duplicateWindow -->
  <g transform="translate(96, 128)">
    <use href="#windowTopArea" x="6" y="6" />
    <path d="M 12 18 h -4 a 2 2 0 0 1 -2 -2 v -4 m 14 0 v 2" />
    <use href="#window" x="12" y="14" />
  </g>
  <!-- minimizeWindow -->
  <g transform="translate(128, 128)">
    <use href="#window" x="6" y="6" />
    <use href="#minusSign" x="19" y="23" />
  </g>
  <!-- closeWindow -->
  <g transform="translate(160, 128)">
    <use href="#window" x="6" y="6" />
    <use href="#crossSign" x="20" y="20" />
  </g>
  <!-- closeOtherWindows -->
  <g transform="translate(192, 128)">
    <use href="#windowTopArea" x="13" y="6" />
    <path d="M 13 14 v -2" />
    <use href="#crossSign" x="22" y="14" />
    <use href="#window" x="5" y="14" />
  </g>
  <!-- undoCloseWindow -->
  <g transform="translate(224, 128)">
    <use href="#windowTopArea" x="6" y="6" />
    <path d="M 13 18 h -5 a 2 2 0 0 1 -2 -2 v -4" />
    <use href="#undoCloseSign" />
  </g>
  <!-- openLink -->
  <g transform="translate(0, 160)">
    <use href="#linkSign" x="6" y="13" />
  </g>
  <!-- openLinkInNewWindow -->
  <g transform="translate(32, 160)">
    <use href="#window" x="9" y="5" />
    <use href="#linkSign" x="6" y="21" />
  </g>
  <!-- openLinkInNewPrivateWindow -->
  <g transform="translate(64, 160)">
    <use href="#mask" />
    <use href="#linkSign" x="6" y="20" />
  </g>
  <!-- copyLink -->
  <g transform="translate(96, 160)">
    <use href="#linkSign" x="5" y="8" />
    <use href="#linkSign" x="7" y="18" />
  </g>
  <!-- saveLinkAs -->
  <g transform="translate(128, 160)">
    <use href="#linkSign" x="6" y="6" />
    <use href="#saveArrow" />
  </g>
  <!-- dailyReadings -->
  <g transform="translate(0, 192)">
    <path d="M 5 9 h 22 v 14 h -22 Z M 16 9 v 14 M 13 14 h 6 M 13 18 h 6" />
    <text x="10" y="20" text-anchor="middle" font-family="sans-serif"
          font-size="11" stroke-width="1">1</text>
    <path d="M 20 13 h 5 M 20 16 h 5 M 20 19 h 5" />
  </g>
  <!-- bookmarkThisPage -->
  <g transform="translate(32, 192)">
    <use href="#smallStar" />
    <use href="#plusSign" x="19" y="19" />
  </g>
  <!-- bookmarkThisIdentifier -->
  <g transform="translate(64, 192)">
    <use href="#smallHashSign" x="11" y="5" />
    <use href="#tinyStar" />
    <use href="#plusSign" x="19" y="19" />
  </g>
  <!-- bookmarkThisLink -->
  <g transform="translate(96, 192)">
    <use href="#linkSign" x="6" y="6" />
    <use href="#tinyStar" />
    <use href="#plusSign" x="19" y="19" />
  </g>
  <!-- bookmarkAllTabs -->
  <g transform="translate(128, 192)">
    <path d="M 6 14 v -6 a 2 2 0 0 1 2 -2 h 4
                    a 2 2 0 0 1 2 2 v 3 a 2 2 0 0 0 2 2 h 11
             M 14 10 a 2 2 0 0 1 2 -2 h 2 a 2 2 0 0 1 2 2 v 3
             M 20 10 a 2 2 0 0 1 2 -2 h 2 a 2 2 0 0 1 2 2 v 3" />
    <use href="#tinyStar" />
    <use href="#plusSign" x="19" y="19" />
  </g>
  <!-- removeBookmarkToThisPage -->
  <g transform="translate(160, 192)">
    <use href="#smallStar" />
    <use href="#crossSign" x="20" y="20" />
  </g>
  <!-- removeBookmarkToThisIdentifier -->
  <g transform="translate(192, 192)">
    <use href="#smallHashSign" x="11" y="5" />
    <use href="#tinyStar" />
    <use href="#crossSign" x="20" y="20" />
  </g>
  <!-- removeBookmarkToThisLink -->
  <g transform="translate(224, 192)">
    <use href="#linkSign" x="6" y="6" />
    <use href="#tinyStar" />
    <use href="#crossSign" x="20" y="20" />
  </g>
  <!-- loadURL1 -->
  <g transform="translate(0, 224)">
    <use href="#star" />
    <text x="16" y="20.5" text-anchor="middle" font-family="sans-serif"
          font-size="10" stroke-width="1">1</text>
  </g>
  <!-- loadURL2 -->
  <g transform="translate(32, 224)">
    <use href="#star" />
    <text x="16" y="20.5" text-anchor="middle" font-family="sans-serif"
          font-size="10" stroke-width="1">2</text>
  </g>
  <!-- loadURL3 -->
  <g transform="translate(64, 224)">
    <use href="#star" />
    <text x="16" y="20.5" text-anchor="middle" font-family="sans-serif"
          font-size="10" stroke-width="1">3</text>
  </g>
  <!-- loadURL4 -->
  <g transform="translate(96, 224)">
    <use href="#star" />
    <text x="16" y="20.5" text-anchor="middle" font-family="sans-serif"
          font-size="10" stroke-width="1">4</text>
  </g>
  <!-- loadURL5 -->
  <g transform="translate(128, 224)">
    <use href="#star" />
    <text x="16" y="20.5" text-anchor="middle" font-family="sans-serif"
          font-size="10" stroke-width="1">5</text>
  </g>
  <!-- loadURL6 -->
  <g transform="translate(160, 224)">
    <use href="#star" />
    <text x="16" y="20.5" text-anchor="middle" font-family="sans-serif"
          font-size="10" stroke-width="1">6</text>
  </g>
  <!-- loadURL7 -->
  <g transform="translate(192, 224)">
    <use href="#star" />
    <text x="16" y="20.5" text-anchor="middle" font-family="sans-serif"
          font-size="10" stroke-width="1">7</text>
  </g>
  <!-- loadURL8 -->
  <g transform="translate(224, 224)">
    <use href="#star" />
    <text x="16" y="20.5" text-anchor="middle" font-family="sans-serif"
          font-size="10" stroke-width="1">8</text>
  </g>
  <!-- loadURL9 -->
  <g transform="translate(256, 224)">
    <use href="#star" />
    <text x="16" y="20.5" text-anchor="middle" font-family="sans-serif"
          font-size="10" stroke-width="1">9</text>
  </g>
  <!-- loadURL10 -->
  <g transform="translate(288, 224)">
    <use href="#star" />
    <text x="15.5" y="20.5" text-anchor="middle" font-family="sans-serif"
          font-size="10" stroke-width="1">10</text>
  </g>
  <!-- runScript1 -->
  <g transform="translate(0, 256)">
    <use href="#script" />
    <text x="16" y="18" text-anchor="middle" font-family="sans-serif"
          font-size="10" stroke-width="1">1</text>
  </g>
  <!-- runScript2 -->
  <g transform="translate(32, 256)">
    <use href="#script" />
    <text x="16" y="18" text-anchor="middle" font-family="sans-serif"
          font-size="10" stroke-width="1">2</text>
  </g>
  <!-- runScript3 -->
  <g transform="translate(64, 256)">
    <use href="#script" />
    <text x="16" y="18" text-anchor="middle" font-family="sans-serif"
          font-size="10" stroke-width="1">3</text>
  </g>
  <!-- runScript4 -->
  <g transform="translate(96, 256)">
    <use href="#script" />
    <text x="16" y="18" text-anchor="middle" font-family="sans-serif"
          font-size="10" stroke-width="1">4</text>
  </g>
  <!-- runScript5 -->
  <g transform="translate(128, 256)">
    <use href="#script" />
    <text x="16" y="18" text-anchor="middle" font-family="sans-serif"
          font-size="10" stroke-width="1">5</text>
  </g>
  <!-- runScript6 -->
  <g transform="translate(160, 256)">
    <use href="#script" />
    <text x="16" y="18" text-anchor="middle" font-family="sans-serif"
          font-size="10" stroke-width="1">6</text>
  </g>
  <!-- runScript7 -->
  <g transform="translate(192, 256)">
    <use href="#script" />
    <text x="16" y="18" text-anchor="middle" font-family="sans-serif"
          font-size="10" stroke-width="1">7</text>
  </g>
  <!-- runScript8 -->
  <g transform="translate(224, 256)">
    <use href="#script" />
    <text x="16" y="18" text-anchor="middle" font-family="sans-serif"
          font-size="10" stroke-width="1">8</text>
  </g>
  <!-- runScript9 -->
  <g transform="translate(256, 256)">
    <use href="#script" />
    <text x="16" y="18" text-anchor="middle" font-family="sans-serif"
          font-size="10" stroke-width="1">9</text>
  </g>
  <!-- runScript10 -->
  <g transform="translate(288, 256)">
    <use href="#script" />
    <text x="16" y="18" text-anchor="middle" font-family="sans-serif"
          font-size="10" stroke-width="1">10</text>
  </g>
  <!-- easyGesturesNPreferences -->
  <g transform="translate(0, 288)">
    <path d="M 6 16 a 10 10 0 0 1 20 0
             M 20 16 a 4 4 0 0 0 -8 0 a 4 4 0 0 0 8 0
             M 26 16 a 10 10 0 0 1 -20 0" fill="black" fill-opacity="0.5"
          stroke-width="1.5" stroke-dasharray="2.5 2.5" />
  </g>
  <!-- copyImageLocation -->
  <g transform="translate(0, 320)">
    <use href="#pictureWithTopFrame" />
    <path d="M 5.5 21.5 A 2 2 0 0 1 5 21 v -2 A 2 2 0 0 1 7 17 h 4
                        A 2 2 0 0 1 13 18.5" />
    <path d="M 17 21 v -2 A 2 2 0 0 1 19 17 h 4 A 2 2 0 0 1 25 18.5" />
    <use href="#linkSign" x="7" y="20" />
  </g>
  <!-- copyImage -->
  <g transform="translate(32, 320)">
    <!-- pictures here are 2 pixels per side narrower than for
         #pictureWithTopFrame -->
    <polyline points="10 18, 6 18, 6 6, 22 6, 22 14" />
    <polyline points="6 12.67, 10 10, 22.28 14" />
    <polyline points="15 11.83, 18 9, 22 10.33" />
    <polygon points="10 26, 10 14, 26 14, 26 26" />
    <polyline points="10 20.66, 14 18, 26 22.28" />
    <polyline points="19 19.83, 22 17, 26 18.34" />
  </g>
  <!-- saveImageAs -->
  <g transform="translate(64, 320)">
    <use href="#pictureWithTopFrame" />
    <polyline points="6 15, 6 18, 10 18" />
    <polyline points="26 16, 26 18, 22 18" />
    <use href="#saveArrow" />
  </g>
  <!-- hideImages -->
  <g transform="translate(96, 320)">
    <use href="#pictureWithTopFrame" y="4" />
    <polyline points="6 15, 6 18, 26 18, 26 16" transform="translate(0, 4)" />
    <line x1="6" y1="6" x2="26" y2="26" />
  </g>
  <!-- cut -->
  <g transform="translate(0, 352)">
    <path d="M 10 14 v -4 h 4 m 4 0 h 4 v 4 m 0 4 v 4 h -4 m -4 0 h -4 v -4" />
  </g>
  <!-- copy -->
  <g transform="translate(32, 352)">
    <path d="M 12 20 h -4 v -12 h 12 v 4 M 12 12 h 12 v 12 h -12 Z" />
  </g>
  <!-- paste -->
  <g transform="translate(64, 352)">
    <path d="M 8 8 h 16 v 16 h -16 Z M 16 12 h 4 v 4 h -4 Z" />
  </g>
  <!-- selectAll -->
  <g transform="translate(96, 352)">
    <use href="#tinyArrow" transform="translate(10, 10) rotate(45)"/>
    <use href="#tinyArrow" transform="translate(22, 10) rotate(135)"/>
    <use href="#tinyArrow" transform="translate(22, 22) rotate(-135)"/>
    <use href="#tinyArrow" transform="translate(10, 22) rotate(-45)"/>
  </g>
</svg>
