<?xml version="1.0" encoding="utf-8"?>

<!--
  This work is licensed under the Creative Commons Attribution-ShareAlike 4.0
  International License. To view a copy of this license, visit
  http://creativecommons.org/licenses/by-sa/4.0/.
  
  Creator: ngdeleito
-->

<svg xmlns="http://www.w3.org/2000/svg" xmlns:svg="http://www.w3.org/2000/svg"
     version="1.1" width="687" height="590" stroke="hsl(0, 0%, 60%)"
     stroke-width="2" fill="transparent">
  <defs>
    <g id="mouseOutline">
      <path d="M 16 0 h 16  a 16 16 0 0 1 16 16
                      v 48  a 16 16 0 0 1 -16 16
                      h -16 a 16 16 0 0 1 -16 -16
                      v -48 a 16 16 0 0 1 16 -16
               M 24 0 v 8 m 0 16 v 16" />
    </g>
    <g id="middleButton">
      <path d="M 24 8 a 4 4 0 0 0 -4 4 v 8
                      a 4 4 0 0 0 4 4 a 4 4 0 0 0 4 -4 v -8
                      a 4 4 0 0 0 -4 -4" />
    </g>
    <g id="mouse">
      <use href="#mouseOutline" />
      <use href="#middleButton" />
    </g>
    <g id="forwardArrow" stroke="hsl(0, 0%, 60%)">
      <line x1="0" y1="0" x2="20" y2="0" />
      <line x1="20" y1="0" x2="12" y2="-8" stroke-linecap="round" />
      <line x1="20" y1="0" x2="12" y2="8" stroke-linecap="round" />
    </g>
    <g id="mouseWithMiddleButtonPushed">
      <use href="#mouseOutline" />
      <use href="#middleButton" fill="hsl(0, 0%, 80%)" />
    </g>
    <g id="mousePointerOutline">
      <path d="M 6 0 l -5 11 l 3.5 -1 v 6 h 3 v -6 l 3.5 1 l -5 -11"
            stroke-width="1" stroke-linecap="round" />
    </g>
    <g id="mousePointer">
      <g transform="translate(-6) rotate(-25)">
        <use href="#mousePointerOutline" stroke="hsl(0, 0%, 85%)"
             fill="hsl(0, 0%, 85%)" transform="translate(-0.5 0.5)" />
        <use href="#mousePointerOutline" stroke="white" fill="black" />
      </g>
    </g>
    <linearGradient id="pushedButton" x1="0%" x2="0%" y1="0%" y2="100%">
      <stop offset="0%" stop-color="hsl(0, 0%, 60%, 1)" />
      <stop offset="100%" stop-color="hsl(0, 0%, 60%, 0)" />
    </linearGradient>
    <g id="rightButton">
      <path d="M 24 40 v -16 a 4 4 0 0 0 4 -4 v -8 a 4 4 0 0 0 -4 -4 v -8 h 8
                       a 16 16 0 0 1 16 16 v 24 m -24" />
    </g>
    <g id="mouseWithRightButtonPushed">
      <use href="#mouse" />
      <use href="#rightButton" fill="url(#pushedButton)" />
    </g>
  </defs>
  
  <g transform="translate(1, 1)">
    <use href="#mouse" y="21" />
    <use href="#forwardArrow" x="62" y="61" />
    <use href="#mouseWithMiddleButtonPushed" x="96" y="21" />
  </g>
  <g transform="translate(1, 125)">
    <use href="#mouseWithMiddleButtonPushed" y="21" />
    <use href="#mousePointer" x="125" y="61" />
    <use href="#forwardArrow" x="200" y="61" />
    <use href="#mousePointer" x="277" y="38" />
    <use href="#forwardArrow" x="370" y="61" />
    <use href="#mouse" x="404" y="21" />
  </g>
  <g transform="translate(1, 249)">
    <use href="#mouseWithMiddleButtonPushed" y="41" />
    <use href="#forwardArrow" x="200" y="81" />
    <use href="#mouseWithRightButtonPushed" x="234" y="41" />
    <use href="#forwardArrow" x="434" y="81" />
    <use href="#mouseWithRightButtonPushed" x="468" y="41" />
  </g>
  <g transform="translate(1, 393)">
    <use href="#mousePointer" x="61" y="93" />
    <use href="#forwardArrow" x="136" y="135" />
    <use href="#mousePointer" x="231" y="51" />
  </g>
</svg>
